<svg width="81" height="112" viewBox="0 0 81 112" fill="none" xmlns="http://www.w3.org/2000/svg">
<rect y="14.6227" width="80.7273" height="97.3773" fill="#544D47"/>
<rect x="3.53174" y="11.0909" width="77.1955" height="97.3773" fill="#84664E"/>
<path d="M10.3911 88.8307C36.7452 96.7585 51.3395 100.866 70.4673 104.966L75.5973 105.204C55.6337 101.882 39.8534 91.3536 21.1455 78.7459C19.9094 83.2544 16.3044 87.6944 10.3911 88.8307Z" fill="#D8D8D8"/>
<path d="M6.55908 7.55908V85.1527C6.84732 87.0493 7.66604 87.8667 10.3911 88.8307C16.3044 87.6944 19.9094 83.2544 21.1455 78.7459C39.8534 91.3536 55.6337 101.882 75.5973 105.204L80.7273 105.441V7.55908H6.55908Z" fill="#FCFCFC"/>
<path d="M16.6499 24.7136H73.4461M16.6499 32.6285H73.4461M73.4461 40.2041L16.6499 39.8649M16.6499 47.5536H73.4461M74.1681 55.2424H16.6499M16.6499 62.9311H73.4461M74.1681 70.5067H16.6499M16.6499 78.1954H20.5005M24.2308 78.1954L73.8071 78.0824" stroke="#00386F"/>
<path d="M66.8933 1V0.75V1ZM64.0773 25.0046H63.8273H64.0773ZM66.424 27.7409V27.4909V27.7409ZM68.6534 27.7409V27.4909V27.7409ZM71.1328 10.2038C71.1328 10.0658 71.0208 9.95385 70.8828 9.95385C70.7447 9.95385 70.6328 10.0658 70.6328 10.2038H71.1328ZM74.4182 7.96507V3.98503H73.9182V7.96507H74.4182ZM74.4182 3.98503C74.4182 3.04522 74.3034 2.22396 73.8527 1.64014C73.3894 1.03989 72.6217 0.75 71.4694 0.75V1.25C72.5466 1.25 73.1282 1.5198 73.4569 1.94565C73.7983 2.38795 73.9182 3.0592 73.9182 3.98503H74.4182ZM71.4694 0.75H66.8933V1.25H71.4694V0.75ZM66.8933 0.75C65.8577 0.75 65.0727 1.00865 64.5527 1.5776C64.0372 2.14176 63.8273 2.96262 63.8273 3.98503H64.3273C64.3273 3.01742 64.5281 2.34577 64.9218 1.91491C65.3112 1.48885 65.9343 1.25 66.8933 1.25V0.75ZM63.8273 3.98503V25.0046H64.3273V3.98503H63.8273ZM63.8273 25.0046C63.8273 26.0424 64.1032 26.7977 64.5878 27.2937C65.0727 27.79 65.7316 27.9909 66.424 27.9909V27.4909C65.8257 27.4909 65.3113 27.3187 64.9454 26.9443C64.5794 26.5697 64.3273 25.9569 64.3273 25.0046H63.8273ZM66.424 27.9909H68.6534V27.4909H66.424V27.9909ZM68.6534 27.9909C69.5281 27.9909 70.1711 27.723 70.5836 27.1763C70.9847 26.6449 71.1328 25.8942 71.1328 25.0046H70.6328C70.6328 25.8563 70.4875 26.4738 70.1845 26.8751C69.8931 27.2613 69.4214 27.4909 68.6534 27.4909V27.9909ZM71.1328 25.0046V10.2038H70.6328V25.0046H71.1328Z" fill="#686464"/>
</svg>
